<svg width="44" height="50" viewBox="0 0 44 50" fill="none" xmlns="http://www.w3.org/2000/svg">
<g id="appaxon_logo-horizintal">
<path id="Vector" d="M22.2498 49.4518C21.9053 49.4518 21.5613 49.3632 21.2525 49.185L1.60191 37.8357C0.937719 37.4518 0.571949 36.7389 0.606143 36.0121L0.604586 13.399C0.604586 12.7064 0.96414 12.0598 1.55373 11.6966L21.2525 0.318848C21.8701 -0.0375976 22.6301 -0.0375976 23.2477 0.318848L42.892 11.664C43.1702 11.8246 43.4029 12.0484 43.5738 12.3126C43.7774 12.6255 43.8961 12.9986 43.8961 13.399V36.1038C43.8961 36.5208 43.7681 36.9063 43.5505 37.2265C43.3811 37.4777 43.1516 37.6938 42.8692 37.8497C41.9071 38.3854 40.6922 38.0409 40.157 37.0773C39.9814 36.7607 39.898 36.4079 39.9063 36.0571V14.5461L22.2509 4.34958L4.5975 14.5456L4.59543 34.9557L22.2509 45.1532L30.0813 40.6319V20.2223L22.2509 15.6957L16.4115 19.0716L23.2492 23.0241C23.8657 23.3805 24.246 24.0385 24.246 24.7509V35.7846C24.246 36.4877 23.8761 37.1389 23.272 37.4985C22.6674 37.8596 21.9182 37.8756 21.3007 37.5394L11.4751 32.2165C10.8311 31.8679 10.4301 31.1938 10.4301 30.4623V19.1058C10.4239 18.7649 10.5053 18.4188 10.683 18.1002C10.683 18.0997 10.6835 18.0991 10.6835 18.0991C10.6933 18.081 10.7042 18.0634 10.7146 18.0458C10.9011 17.7349 11.1596 17.4925 11.4565 17.3277L21.253 11.6645C21.8706 11.307 22.6327 11.307 23.2497 11.6645L33.0753 17.3443C33.6918 17.7007 34.0716 18.3587 34.0716 19.0716V41.781C34.0716 42.0753 34.0068 42.3597 33.8871 42.6187C33.7198 42.9835 33.4426 43.2995 33.0743 43.5124L23.2487 49.185C22.9389 49.3627 22.5938 49.4518 22.2498 49.4518ZM14.4194 29.2743L20.2547 32.4347V25.9021L14.4194 22.5288V29.2743Z" fill="url(#paint0_linear_51_1072)"/>
</g>
<defs>
<linearGradient id="paint0_linear_51_1072" x1="0.603657" y1="24.751" x2="43.8957" y2="24.751" gradientUnits="userSpaceOnUse">
<stop stop-color="#0072AD"/>
<stop offset="0.8336" stop-color="#AF4E90"/>
<stop offset="1" stop-color="#C93B8A"/>
</linearGradient>
</defs>
</svg>
